# xmcd
#
# Track frame offsets:
#	150
#	14561
#	28595
#	39398
#	53106
#	65996
#	78211
#	90962
#	104963
#	119733
#	135614
#	146255
#	161304
#	175946
#	192296
#	205704
#	217695
#	230710
#	244655
#	257673
#
# Disc length: 3622 seconds
#
# Revision: 1
# Processed by: cddbd v1.5.2PL0 Copyright (c) Steve Scherf et al.
# Submitted via: audiograbber 1.83.01
#
DISCID=160e2414
DTITLE=Various Artist - Classic Love Songs - CD2 - Unforgettable Love Songs from the 5
DTITLE=0s 
DYEAR=2005
DGENRE=Blues
TTITLE0=Nat King Cole - Unforgettable
TTITLE1=Perry Como - Wanted
TTITLE2=Dean Martin - Kiss
TTITLE3=Jo Stafford - You Belong to Me
TTITLE4=Dickie Valentine - Finger of Suspicion
TTITLE5=Nat King Cole - Pretend
TTITLE6=Joan Regan - If I Give My Heart to You
TTITLE7=Dickie Valentine - All the Time and Everywhere
TTITLE8=Perry Como - No Other Love
TTITLE9=Mario Lanza - Because You're Mine
TTITLE10=Jimmy Young - Eternally
TTITLE11=Sammy Kaye - Harbour Lights
TTITLE12=Nat King Cole - Mona Lisa
TTITLE13=Doris Day - Secret Love
TTITLE14=Nat King Cole - Make Her Mine
TTITLE15=Frankie Laine - Answer Me
TTITLE16=Billy Eckstine - I Apologise
TTITLE17=Tony Bennett - Stranger in Paradise
TTITLE18=Nat King Cole - Smile
TTITLE19=Dean Martin - That's Amore
EXTD=
EXTT0=
EXTT1=
EXTT2=
EXTT3=
EXTT4=
EXTT5=
EXTT6=
EXTT7=
EXTT8=
EXTT9=
EXTT10=
EXTT11=
EXTT12=
EXTT13=
EXTT14=
EXTT15=
EXTT16=
EXTT17=
EXTT18=
EXTT19=
PLAYORDER=
